# xmcd
#
# Track frame offsets:
#	150
#	15244
#	32666
#	52660
#	73476
#	94447
#	111010
#	126731
#	146358
#	164705
#	178611
#	195326
#	214056
#	231613
#	246088
#
# Disc length: 3568 seconds
#
# Revision: 2
# Processed by: cddbd v1.5.2PL0 Copyright (c) Steve Scherf et al.
# Submitted via: EasyCDDAExtractor 11.0.0.1
#
DISCID=db0dee0f
DTITLE=King Africa - La Bomba
DYEAR=2002
DGENRE=Latin
TTITLE0=La Bomba
TTITLE1=Mama Yo Quiero
TTITLE2=Bailando Pump It Up
TTITLE3=E-O-Zumba-E
TTITLE4=Toda Espana Esta Bailando
TTITLE5=Juega Conmigo
TTITLE6=El Camaleon
TTITLE7=Ciudad Maravillosa
TTITLE8=Africana (La Colegiala)
TTITLE9=Tarantela
TTITLE10=Calenton
TTITLE11=El Orangutan
TTITLE12=El Mate
TTITLE13=Agua Mate
TTITLE14=King Africa Megamix
EXTD=YEAR: 2002
EXTT0=
EXTT1=
EXTT2=
EXTT3=
EXTT4=
EXTT5=
EXTT6=
EXTT7=
EXTT8=
EXTT9=
EXTT10=
EXTT11=
EXTT12=
EXTT13=
EXTT14=
PLAYORDER=
